<?xml version="1.0" standalone="no"?>
<!DOCTYPE svg PUBLIC "-//W3C//DTD SVG 20010904//EN"
 "http://www.w3.org/TR/2001/REC-SVG-20010904/DTD/svg10.dtd">
<svg version="1.0" xmlns="http://www.w3.org/2000/svg"
 width="792.000000pt" height="792.000000pt" viewBox="0 0 792.000000 792.000000"
 preserveAspectRatio="xMidYMid meet">
<metadata>
Created by potrace 1.14, written by Peter Selinger 2001-2017
</metadata>
<g transform="translate(0.000000,792.000000) scale(0.100000,-0.100000)"
fill="#000000" stroke="none">
<path d="M3940 6700 c-47 -3 -94 -11 -105 -17 -11 -6 -69 -16 -130 -22 -519
-52 -1231 -430 -1605 -853 -142 -160 -168 -191 -215 -255 -26 -35 -53 -66 -60
-70 -22 -13 -143 -219 -210 -358 -75 -156 -104 -241 -150 -443 -19 -85 -40
-163 -46 -175 -7 -11 -11 -55 -10 -98 1 -52 -5 -101 -20 -155 -33 -119 -37
-354 -11 -594 11 -102 20 -223 21 -270 0 -80 3 -94 60 -240 69 -178 111 -317
111 -366 0 -27 4 -34 20 -34 21 0 50 -45 50 -79 0 -11 5 -23 10 -26 6 -4 22
-30 36 -58 14 -29 41 -68 59 -87 18 -19 63 -82 99 -139 50 -80 66 -113 66
-142 0 -35 1 -37 41 -42 22 -3 49 -13 59 -22 22 -20 43 -77 38 -102 -2 -13 8
-23 34 -35 29 -13 40 -25 44 -48 5 -23 11 -29 24 -25 23 7 39 -14 43 -56 4
-30 11 -37 58 -61 30 -15 64 -27 75 -27 32 -1 64 -31 114 -105 41 -60 48 -66
80 -66 59 0 108 -19 132 -51 93 -121 123 -142 304 -203 71 -24 160 -58 199
-76 171 -79 398 -130 570 -127 28 0 97 -7 155 -16 58 -9 163 -17 235 -17 175
0 415 17 431 31 8 6 30 9 51 7 22 -3 57 3 88 15 27 10 109 32 180 49 211 48
287 81 355 153 33 36 34 37 10 32 -65 -15 -171 -18 -350 -8 -192 10 -195 10
-224 -11 -23 -17 -52 -23 -127 -29 -54 -4 -108 -13 -121 -21 -17 -9 -88 -13
-278 -13 l-255 0 -209 43 c-217 45 -230 48 -222 61 3 4 -11 15 -30 24 -28 14
-38 15 -54 5 -16 -10 -26 -10 -52 5 -18 9 -64 24 -102 32 -71 17 -126 40 -126
53 0 5 -29 16 -65 27 -47 13 -80 31 -122 67 -31 26 -63 48 -70 48 -7 0 -17 9
-23 20 -6 11 -17 20 -26 20 -23 0 -110 47 -147 79 -18 16 -42 45 -52 64 -15
28 -32 40 -86 62 -59 23 -107 55 -83 55 5 0 -7 11 -26 24 -19 13 -45 34 -57
47 -11 13 -32 34 -45 46 -13 11 -33 38 -43 60 -11 21 -28 51 -39 67 -14 21
-16 30 -7 36 8 4 -5 12 -32 20 -26 7 -58 26 -75 44 -31 32 -122 189 -122 210
0 6 -24 42 -53 80 -61 79 -109 164 -96 171 10 7 -28 111 -101 278 -35 79 -57
146 -67 205 -9 51 -21 90 -29 95 -20 12 -17 60 7 112 l21 45 -31 49 c-45 74
-65 143 -57 199 4 26 9 126 12 222 4 128 9 181 20 197 8 13 14 47 14 80 0 127
30 232 88 317 19 27 23 41 15 43 -18 6 -16 42 2 49 11 4 15 21 15 57 0 57 26
121 64 156 22 20 24 29 19 77 -5 49 -4 55 23 81 33 31 177 233 216 303 14 25
31 61 37 81 10 31 71 105 71 86 0 -4 13 7 29 25 16 18 51 44 79 58 50 25 65
47 74 115 2 13 20 26 56 40 34 13 59 30 71 50 23 37 72 84 181 171 206 164
367 245 652 328 86 25 197 63 246 86 100 44 154 50 236 26 55 -17 71 -13 102
23 l22 26 234 -1 c252 -1 379 -13 586 -60 202 -45 426 -124 587 -207 86 -44
233 -175 221 -196 -5 -8 13 -11 57 -11 72 0 86 -9 108 -75 19 -55 58 -89 130
-110 67 -21 139 -63 139 -82 0 -22 43 -41 112 -48 46 -4 71 -12 84 -26 20 -22
62 -25 87 -6 15 11 15 15 -3 55 -11 25 -56 79 -104 127 -47 46 -92 95 -101
109 -10 15 -27 26 -40 26 -14 0 -35 14 -54 35 -17 19 -33 35 -35 35 -3 0 -43
30 -88 67 -118 95 -241 173 -408 257 -278 141 -402 182 -803 266 -234 48 -256
51 -415 53 -92 2 -205 0 -252 -3z"/>
<path d="M3544 5471 c-28 -10 -96 -47 -150 -81 -55 -35 -122 -76 -149 -91 -28
-16 -62 -40 -75 -54 -13 -14 -28 -25 -34 -25 -6 -1 -26 -21 -44 -46 -18 -25
-56 -61 -83 -80 -32 -24 -55 -51 -68 -79 -10 -24 -29 -53 -40 -64 -31 -31
-221 -422 -221 -454 0 -8 -7 -28 -15 -43 -8 -16 -15 -45 -15 -65 0 -59 -29
-138 -66 -178 -39 -44 -42 -62 -14 -101 18 -25 21 -51 27 -174 l6 -145 27 -6
c57 -13 193 39 262 100 37 32 78 93 78 116 0 19 -19 32 -61 43 -22 5 -28 2
-32 -16 -5 -18 -9 -19 -21 -9 -24 20 -29 65 -11 107 9 21 19 41 24 44 4 3 38
84 76 180 80 206 143 342 213 464 29 49 52 98 52 108 0 22 55 82 68 74 5 -3
23 14 40 37 17 24 58 63 93 87 34 25 81 62 104 83 49 43 68 46 116 13 63 -43
66 -68 30 -203 -17 -64 -38 -130 -45 -147 -8 -17 -19 -53 -26 -81 -6 -27 -15
-54 -19 -60 -5 -5 -11 -35 -14 -65 -8 -71 -46 -183 -97 -285 -22 -45 -40 -88
-40 -96 0 -9 -12 -38 -26 -65 -14 -26 -48 -109 -76 -184 -113 -303 -162 -373
-393 -556 -229 -182 -426 -407 -578 -662 l-56 -93 19 -32 c10 -18 21 -48 25
-67 4 -19 20 -46 35 -60 l27 -25 64 15 c58 14 64 18 71 48 10 36 41 61 81 64
22 2 27 8 33 42 7 46 41 84 81 92 21 4 40 24 76 78 26 40 47 83 47 95 0 13 7
25 18 28 28 8 178 218 162 228 -19 12 -10 37 23 69 18 17 49 58 69 91 88 144
207 257 408 386 147 95 148 96 130 109 -14 10 -74 8 -160 -5 -69 -11 -69 -1 4
161 45 102 64 156 60 171 -7 26 24 92 67 140 17 20 37 63 49 106 49 167 70
202 152 243 65 33 494 216 726 310 103 42 194 82 203 90 8 8 23 14 31 14 9 0
21 7 28 15 30 37 100 3 100 -48 0 -23 -26 -73 -57 -112 -13 -16 -67 -89 -118
-161 -126 -176 -179 -220 -294 -245 -34 -7 -52 -16 -56 -29 -7 -21 -81 -80
-101 -80 -26 0 -64 -42 -64 -70 0 -16 -5 -50 -11 -77 -10 -41 -9 -54 5 -81 19
-36 20 -79 3 -108 -14 -24 -48 -62 -129 -145 -31 -32 -59 -68 -63 -81 -4 -13
-20 -36 -35 -53 -15 -16 -52 -64 -82 -105 -30 -41 -80 -102 -111 -135 -74 -77
-76 -115 -10 -156 l35 -22 37 21 c21 12 41 19 44 16 11 -11 196 146 197 167 0
4 12 28 26 54 15 26 29 65 31 88 2 22 13 58 26 80 26 48 126 137 159 143 12 2
38 7 56 10 28 5 42 0 85 -29 29 -19 68 -42 87 -50 19 -8 64 -43 100 -78 48
-47 94 -79 178 -123 64 -33 131 -77 154 -100 25 -25 48 -40 60 -38 21 4 88
-34 88 -50 0 -6 3 -9 6 -5 3 3 18 -8 32 -25 15 -17 51 -42 82 -55 30 -14 89
-46 130 -73 96 -62 123 -70 143 -38 8 12 22 58 31 101 15 76 15 80 -4 104 -11
14 -20 31 -20 37 0 6 -16 24 -36 39 -19 16 -33 34 -31 40 6 18 -46 55 -140
101 -109 54 -181 110 -223 175 -35 53 -39 55 -108 66 -24 4 -51 15 -60 25 -9
9 -32 25 -51 35 -18 9 -35 24 -38 33 -6 22 -115 96 -173 118 -62 23 -106 58
-114 89 -6 25 12 74 59 155 7 14 16 33 19 42 3 10 18 20 33 24 15 3 62 23 105
44 42 21 78 36 81 34 3 -3 26 9 53 25 26 17 53 31 60 31 7 0 19 7 28 15 14 14
63 40 166 89 19 10 80 42 135 72 191 104 264 137 318 141 90 8 160 39 196 86
17 23 51 67 76 97 24 30 55 73 67 96 18 36 20 45 9 58 -24 28 -86 20 -151 -20
-32 -20 -73 -41 -92 -48 -18 -7 -54 -23 -81 -35 -26 -12 -51 -20 -56 -17 -4 3
-28 -17 -53 -44 -25 -27 -57 -52 -74 -56 -16 -3 -39 -16 -51 -27 -12 -11 -36
-21 -52 -23 -43 -5 -100 -36 -209 -112 -51 -35 -113 -70 -137 -78 -25 -7 -64
-24 -88 -38 -43 -25 -91 -34 -101 -18 -7 12 125 193 183 249 45 43 54 57 55
90 1 22 11 53 22 69 24 34 18 87 -13 109 -11 8 -25 31 -31 53 -15 48 -33 65
-98 91 -48 18 -54 19 -95 4 -24 -8 -64 -17 -89 -19 -67 -7 -175 -39 -368 -111
-275 -101 -330 -110 -420 -64 -39 20 -112 93 -112 112 0 19 -95 99 -130 109
-55 15 -150 11 -206 -9z"/>
</g>
</svg>
